<svg width="20" height="16" viewBox="0 0 20 16" fill="none" xmlns="http://www.w3.org/2000/svg">
<path d="M9.98523 7.16992L16.6259 0.529297C17.0848 0.0703125 17.827 0.0703125 18.2811 0.529297L19.3846 1.63281C19.8436 2.0918 19.8436 2.83398 19.3846 3.28809L14.6825 8L19.3895 12.707C19.8485 13.166 19.8485 13.9082 19.3895 14.3623L18.286 15.4707C17.827 15.9297 17.0848 15.9297 16.6307 15.4707L9.99012 8.83008C9.52625 8.37109 9.52625 7.62891 9.98523 7.16992ZM0.610232 8.83008L7.25086 15.4707C7.70984 15.9297 8.45203 15.9297 8.90613 15.4707L10.0096 14.3672C10.4686 13.9082 10.4686 13.166 10.0096 12.7119L5.3075 8L10.0145 3.29297C10.4735 2.83398 10.4735 2.0918 10.0145 1.6377L8.91101 0.529297C8.45203 0.0703125 7.70984 0.0703125 7.25574 0.529297L0.615115 7.16992C0.151248 7.62891 0.151248 8.37109 0.610232 8.83008Z" fill="#D9D9D9"/>
</svg>
