<svg width="20" height="16" viewBox="0 0 20 16" fill="none" xmlns="http://www.w3.org/2000/svg">
<path d="M10.0122 8.83008L3.37158 15.4707C2.9126 15.9297 2.17041 15.9297 1.71631 15.4707L0.612793 14.3672C0.153809 13.9082 0.153809 13.166 0.612793 12.7119L5.31982 8.00488L0.612793 3.29785C0.153809 2.83887 0.153809 2.09668 0.612793 1.64258L1.71143 0.529297C2.17041 0.0703125 2.9126 0.0703125 3.3667 0.529297L10.0073 7.16992C10.4712 7.62891 10.4712 8.37109 10.0122 8.83008ZM19.3872 7.16992L12.7466 0.529297C12.2876 0.0703125 11.5454 0.0703125 11.0913 0.529297L9.98779 1.63281C9.52881 2.0918 9.52881 2.83398 9.98779 3.28809L14.6948 7.99512L9.98779 12.7021C9.52881 13.1611 9.52881 13.9033 9.98779 14.3574L11.0913 15.4609C11.5503 15.9199 12.2925 15.9199 12.7466 15.4609L19.3872 8.82031C19.8462 8.37109 19.8462 7.62891 19.3872 7.16992Z" fill="#757575"/>
</svg>
